PathFileType	4	(X/Y/Z)	C:/Users/opensim2020/Desktop/walking_exp_matlab/subject01_walking11_straight_04.trc	
DataRate	CameraRate	NumFrames	NumMarkers	Units	OrigDataRate	OrigDataStartFrame	OrigNumFrames	
100.00	100.00	5	44	mm	100.00	3904	278	
Frame#	Time	LFHD			RFHD			LBHD			RBHD			C7			T10			CLAV			STRN			RBAK			LSHO			LUPA			LELB			LFRM			LWRA			LWRB			LFIN			RSHO			RUPA			RELB			RFRM			RWRA			RWRB			RFIN			LASI			RASI			LPSI			RPSI			LTHI			LKNE			LTIB			LANK			LHEE			LTOE			RTHI			RKNE			RTIB			RANK			RHEE			RTOE			*39			*40			*41			*42			*43			
		X1	Y1	Z1	X2	Y2	Z2	X3	Y3	Z3	X4	Y4	Z4	X5	Y5	Z5	X6	Y6	Z6	X7	Y7	Z7	X8	Y8	Z8	X9	Y9	Z9	X10	Y10	Z10	X11	Y11	Z11	X12	Y12	Z12	X13	Y13	Z13	X14	Y14	Z14	X15	Y15	Z15	X16	Y16	Z16	X17	Y17	Z17	X18	Y18	Z18	X19	Y19	Z19	X20	Y20	Z20	X21	Y21	Z21	X22	Y22	Z22	X23	Y23	Z23	X24	Y24	Z24	X25	Y25	Z25	X26	Y26	Z26	X27	Y27	Z27	X28	Y28	Z28	X29	Y29	Z29	X30	Y30	Z30	X31	Y31	Z31	X32	Y32	Z32	X33	Y33	Z33	X34	Y34	Z34	X35	Y35	Z35	X36	Y36	Z36	X37	Y37	Z37	X38	Y38	Z38	X39	Y39	Z39	X40	Y40	Z40	X41	Y41	Z41	X42	Y42	Z42	X43	Y43	Z43	X44	Y44	Z44	

35	0.340	-1029.42114	766.79205	1667.68896	-1139.72058	733.71216	1674.78979	-1059.06091	881.28101	1629.23169	-1176.15430	850.29449	1636.24243	-1091.45911	917.96204	1433.35815	-1103.49255	959.48053	1141.25281	-1099.23792	774.83917	1364.31079	-1099.50269	734.20947	1208.41382	-1169.57764	980.83197	1241.10339	-934.42047	828.40765	1397.29724	-853.74646	882.34857	1216.80005	-858.57983	918.02985	1068.64453	-831.73303	889.84479	958.25018	-842.84631	816.15131	839.38660	-825.55157	873.51892	836.78766	-811.62872	829.81195	764.32227	-1244.33838	850.34680	1395.50769	-1354.40540	899.05011	1198.76123	-1366.96106	882.18311	1073.38672	-1397.42419	821.25458	967.63672	-1372.81079	712.21283	878.81714	-1416.11401	750.44153	868.92444	-1411.00818	693.18506	804.01855	-1005.35217	788.62134	936.08783	-1221.63245	804.00793	924.99683	-1043.64050	977.72345	948.93970	-1188.32385	985.77277	947.86066	-923.28442	759.32239	617.29443	-941.71722	733.58752	486.92273	-929.26056	728.89124	301.85611	-973.59766	673.08392	84.85740	-1032.40710	698.03619	41.82347	-954.74200	527.85864	91.56584	-1260.37561	889.95502	594.91180	-1232.14893	898.80878	435.36310	-1236.81897	983.93384	280.27765	-1186.40576	1056.02600	88.04729	-1137.54065	1112.36279	56.34273	-1183.76257	922.13428	39.26534	-1118.25183	747.65668	1708.48682	-3101.96509	1973.17139	1023.54669	-3140.74536	2012.56653	1021.95764						 
36	0.350	-1027.55688	759.63580	1666.92505	-1138.00500	726.63989	1674.17737	-1057.35840	874.21027	1628.54468	-1174.41687	843.25592	1635.77698	-1089.99976	910.93219	1432.73792	-1102.06750	952.81915	1140.74048	-1097.85046	767.99011	1363.59058	-1098.61316	727.27380	1207.79138	-1168.23022	974.06873	1240.61084	-933.10016	821.29535	1396.46948	-852.67847	875.35156	1215.90491	-857.64386	911.19110	1067.85327	-830.90631	882.57074	957.34442	-842.13879	808.81879	838.58832	-824.96478	866.20099	835.92273	-810.89020	822.55945	763.70367	-1243.02747	843.43536	1394.89001	-1353.07739	892.17487	1198.22742	-1365.80139	875.26611	1072.86072	-1396.51624	814.04761	967.40912	-1372.01855	704.48999	879.06525	-1415.25427	742.74792	868.94629	-1410.20203	685.12732	804.38672	-1004.82269	781.09119	935.26440	-1221.13635	797.43500	924.65680	-1042.03943	970.34491	948.09186	-1186.69714	979.10681	947.41107	-923.05139	752.11066	616.46991	-941.51587	726.45660	486.27411	-928.35645	719.86188	301.43842	-972.25092	662.77386	84.56446	-1030.99390	687.46069	41.36656	-954.87177	517.15320	92.26965	-1260.09851	884.82568	594.68237	-1232.12585	894.37231	435.02390	-1237.05627	981.27423	280.90521	-1186.46228	1055.11548	89.09752	-1137.96716	1112.03064	58.18465	-1183.82129	921.99817	39.32064	-1116.54053	740.49799	1707.98743	-3102.00952	1973.17480	1023.39032	-3140.62207	2012.59875	1022.10822						 
37	0.360	-1025.80774	752.50964	1666.17151	-1136.16589	719.56195	1673.58997	-1055.58228	866.95917	1627.80847	-1172.57556	836.20709	1635.32031	-1088.47815	903.99426	1432.11157	-1100.55847	945.71826	1140.08044	-1096.59888	760.96533	1362.95569	-1097.45801	720.26343	1207.09973	-1166.74475	967.25677	1240.11633	-931.64063	814.14124	1395.77661	-851.45758	868.27753	1215.02710	-856.65649	903.90887	1066.90491	-829.96436	875.16577	956.42169	-841.37958	801.26434	837.80719	-823.99304	858.64722	835.02075	-810.04834	814.94672	762.96960	-1241.50354	836.55176	1394.33020	-1351.56824	885.38751	1197.65991	-1364.46033	868.41528	1072.32178	-1395.33704	806.84436	966.95844	-1371.09216	696.88934	879.17786	-1414.21899	735.22980	868.87091	-1409.46704	677.28186	804.73322	-1004.13812	773.37787	934.54572	-1220.65491	790.61084	924.34894	-1040.36719	962.87372	947.26306	-1184.93628	972.37201	946.88184	-923.00452	744.20801	615.82336	-941.39166	718.86548	485.83334	-927.60181	711.36884	300.96140	-971.42401	653.22839	84.27694	-1029.65979	678.66882	40.80632	-955.40717	507.48404	92.11932	-1259.87036	879.44360	594.67932	-1232.04846	889.71240	434.80545	-1237.18774	978.37213	281.61978	-1186.86267	1054.38367	90.46921	-1138.41016	1111.50549	60.13543	-1184.01648	921.92578	39.34117	-1114.58203	733.39355	1707.24219	-3101.98535	1973.21606	1023.28790	-3140.75269	2012.54053	1021.97687						 
38	0.370	-1023.95367	745.28906	1665.44226	-1134.22070	712.41113	1672.99890	-1053.68445	859.84338	1627.24475	-1170.76147	829.11597	1634.93481	-1086.76404	897.00873	1431.51416	-1098.95227	938.58411	1139.46143	-1095.02576	754.09119	1362.39966	-1096.32288	713.21936	1206.55212	-1165.17786	960.43396	1239.64026	-930.07611	806.95935	1395.03650	-850.18945	860.97089	1214.16956	-855.53448	896.39307	1065.98950	-829.04846	867.55011	955.47174	-840.58350	793.60248	836.97858	-823.41284	850.99127	834.17010	-809.19202	807.05243	762.14319	-1239.87256	829.84479	1393.75745	-1349.93982	878.61420	1197.08276	-1362.97266	861.55560	1071.81335	-1394.06299	799.71802	966.72168	-1370.07678	689.39874	879.22571	-1413.08484	727.81329	868.79126	-1408.68396	669.54041	804.95355	-1003.41638	765.70752	933.94470	-1219.86426	783.85553	924.15790	-1038.70422	955.36603	946.49762	-1183.21631	965.47211	946.53717	-923.28790	735.72461	615.24939	-941.40479	710.84338	485.53613	-927.13947	703.38208	300.31836	-970.70618	645.43231	83.54938	-1028.43726	671.54321	40.01291	-956.10052	499.33774	91.33968	-1259.36841	873.74982	594.49384	-1231.79871	884.74890	434.58466	-1237.29871	975.22498	282.33588	-1187.16809	1053.70190	92.10834	-1138.97168	1111.06738	62.42227	-1184.08179	921.73535	39.36641	-1112.66614	726.25177	1706.65625	-3101.94531	1973.02539	1023.40094	-3140.71216	2012.51636	1021.98022						 
39	0.380	-1022.02203	738.04626	1664.77478	-1132.36194	705.23785	1672.47485	-1051.75342	852.74664	1626.83142	-1168.80493	822.03705	1634.52209	-1084.98889	889.98175	1430.96191	-1097.25842	931.29205	1138.84338	-1093.63086	746.97406	1361.84546	-1094.93445	706.09985	1206.07080	-1163.40869	953.46991	1239.13818	-928.36975	799.74615	1394.39893	-848.74127	853.41095	1213.28833	-854.19110	888.64142	1065.17847	-827.94348	859.66943	954.59601	-839.67529	785.68976	836.16888	-822.28528	843.12024	833.30292	-808.36444	799.14453	761.30200	-1238.18604	822.87592	1393.20178	-1348.06775	872.00568	1196.57532	-1361.40393	854.69348	1071.34790	-1392.70068	792.58557	966.34943	-1368.91956	682.08893	879.20966	-1411.98242	720.50287	868.65491	-1407.61572	662.07013	805.16699	-1002.49512	757.80585	933.35901	-1219.16406	776.82092	923.81213	-1037.04358	947.68378	945.77118	-1181.35742	958.39258	946.11829	-923.73657	726.78546	614.85297	-941.52264	702.26166	485.22366	-926.64844	695.78076	299.71246	-970.22955	639.09912	82.84847	-1027.62512	665.74158	39.06944	-957.00134	492.62360	89.69202	-1258.85486	867.82745	594.40045	-1231.54077	879.59412	434.32422	-1237.32483	971.94751	283.08807	-1187.70483	1052.57922	93.57153	-1139.49548	1110.58069	64.87404	-1184.24268	921.64191	39.35086	-1110.75732	719.01678	1706.26892	-3101.97095	1973.07898	1023.38678	-3140.81812	2012.56006	1022.10175						 
